%TF.GenerationSoftware,KiCad,Pcbnew,9.0.1*%
%TF.CreationDate,2025-04-15T15:16:39+02:00*%
%TF.ProjectId,lcd,6c63642e-6b69-4636-9164-5f7063625858,rev?*%
%TF.SameCoordinates,Original*%
%TF.FileFunction,Soldermask,Top*%
%TF.FilePolarity,Negative*%
%FSLAX46Y46*%
G04 Gerber Fmt 4.6, Leading zero omitted, Abs format (unit mm)*
G04 Created by KiCad (PCBNEW 9.0.1) date 2025-04-15 15:16:39*
%MOMM*%
%LPD*%
G01*
G04 APERTURE LIST*
G04 Aperture macros list*
%AMRoundRect*
0 Rectangle with rounded corners*
0 $1 Rounding radius*
0 $2 $3 $4 $5 $6 $7 $8 $9 X,Y pos of 4 corners*
0 Add a 4 corners polygon primitive as box body*
4,1,4,$2,$3,$4,$5,$6,$7,$8,$9,$2,$3,0*
0 Add four circle primitives for the rounded corners*
1,1,$1+$1,$2,$3*
1,1,$1+$1,$4,$5*
1,1,$1+$1,$6,$7*
1,1,$1+$1,$8,$9*
0 Add four rect primitives between the rounded corners*
20,1,$1+$1,$2,$3,$4,$5,0*
20,1,$1+$1,$4,$5,$6,$7,0*
20,1,$1+$1,$6,$7,$8,$9,0*
20,1,$1+$1,$8,$9,$2,$3,0*%
%AMOutline5P*
0 Free polygon, 5 corners , with rotation*
0 The origin of the aperture is its center*
0 number of corners: always 5*
0 $1 to $10 corner X, Y*
0 $11 Rotation angle, in degrees counterclockwise*
0 create outline with 5 corners*
4,1,5,$1,$2,$3,$4,$5,$6,$7,$8,$9,$10,$1,$2,$11*%
%AMOutline6P*
0 Free polygon, 6 corners , with rotation*
0 The origin of the aperture is its center*
0 number of corners: always 6*
0 $1 to $12 corner X, Y*
0 $13 Rotation angle, in degrees counterclockwise*
0 create outline with 6 corners*
4,1,6,$1,$2,$3,$4,$5,$6,$7,$8,$9,$10,$11,$12,$1,$2,$13*%
%AMOutline7P*
0 Free polygon, 7 corners , with rotation*
0 The origin of the aperture is its center*
0 number of corners: always 7*
0 $1 to $14 corner X, Y*
0 $15 Rotation angle, in degrees counterclockwise*
0 create outline with 7 corners*
4,1,7,$1,$2,$3,$4,$5,$6,$7,$8,$9,$10,$11,$12,$13,$14,$1,$2,$15*%
%AMOutline8P*
0 Free polygon, 8 corners , with rotation*
0 The origin of the aperture is its center*
0 number of corners: always 8*
0 $1 to $16 corner X, Y*
0 $17 Rotation angle, in degrees counterclockwise*
0 create outline with 8 corners*
4,1,8,$1,$2,$3,$4,$5,$6,$7,$8,$9,$10,$11,$12,$13,$14,$15,$16,$1,$2,$17*%
%AMFreePoly0*
4,1,37,0.800000,0.796148,0.878414,0.796148,1.032228,0.765552,1.177117,0.705537,1.307515,0.618408,1.418408,0.507515,1.505537,0.377117,1.565552,0.232228,1.596148,0.078414,1.596148,-0.078414,1.565552,-0.232228,1.505537,-0.377117,1.418408,-0.507515,1.307515,-0.618408,1.177117,-0.705537,1.032228,-0.765552,0.878414,-0.796148,0.800000,-0.796148,0.800000,-0.800000,-1.400000,-0.800000,
-1.403843,-0.796157,-1.439018,-0.796157,-1.511114,-0.766294,-1.566294,-0.711114,-1.596157,-0.639018,-1.596157,-0.603843,-1.600000,-0.600000,-1.600000,0.600000,-1.596157,0.603843,-1.596157,0.639018,-1.566294,0.711114,-1.511114,0.766294,-1.439018,0.796157,-1.403843,0.796157,-1.400000,0.800000,0.800000,0.800000,0.800000,0.796148,0.800000,0.796148,$1*%
%AMFreePoly1*
4,1,37,1.403843,0.796157,1.439018,0.796157,1.511114,0.766294,1.566294,0.711114,1.596157,0.639018,1.596157,0.603843,1.600000,0.600000,1.600000,-0.600000,1.596157,-0.603843,1.596157,-0.639018,1.566294,-0.711114,1.511114,-0.766294,1.439018,-0.796157,1.403843,-0.796157,1.400000,-0.800000,-0.800000,-0.800000,-0.800000,-0.796148,-0.878414,-0.796148,-1.032228,-0.765552,-1.177117,-0.705537,
-1.307515,-0.618408,-1.418408,-0.507515,-1.505537,-0.377117,-1.565552,-0.232228,-1.596148,-0.078414,-1.596148,0.078414,-1.565552,0.232228,-1.505537,0.377117,-1.418408,0.507515,-1.307515,0.618408,-1.177117,0.705537,-1.032228,0.765552,-0.878414,0.796148,-0.800000,0.796148,-0.800000,0.800000,1.400000,0.800000,1.403843,0.796157,1.403843,0.796157,$1*%
%AMFreePoly2*
4,1,37,0.603843,0.796157,0.639018,0.796157,0.711114,0.766294,0.766294,0.711114,0.796157,0.639018,0.796157,0.603843,0.800000,0.600000,0.800000,-0.600000,0.796157,-0.603843,0.796157,-0.639018,0.766294,-0.711114,0.711114,-0.766294,0.639018,-0.796157,0.603843,-0.796157,0.600000,-0.800000,0.000000,-0.800000,0.000000,-0.796148,-0.078414,-0.796148,-0.232228,-0.765552,-0.377117,-0.705537,
-0.507515,-0.618408,-0.618408,-0.507515,-0.705537,-0.377117,-0.765552,-0.232228,-0.796148,-0.078414,-0.796148,0.078414,-0.765552,0.232228,-0.705537,0.377117,-0.618408,0.507515,-0.507515,0.618408,-0.377117,0.705537,-0.232228,0.765552,-0.078414,0.796148,0.000000,0.796148,0.000000,0.800000,0.600000,0.800000,0.603843,0.796157,0.603843,0.796157,$1*%
%AMFreePoly3*
4,1,37,0.000000,0.796148,0.078414,0.796148,0.232228,0.765552,0.377117,0.705537,0.507515,0.618408,0.618408,0.507515,0.705537,0.377117,0.765552,0.232228,0.796148,0.078414,0.796148,-0.078414,0.765552,-0.232228,0.705537,-0.377117,0.618408,-0.507515,0.507515,-0.618408,0.377117,-0.705537,0.232228,-0.765552,0.078414,-0.796148,0.000000,-0.796148,0.000000,-0.800000,-0.600000,-0.800000,
-0.603843,-0.796157,-0.639018,-0.796157,-0.711114,-0.766294,-0.766294,-0.711114,-0.796157,-0.639018,-0.796157,-0.603843,-0.800000,-0.600000,-0.800000,0.600000,-0.796157,0.603843,-0.796157,0.639018,-0.766294,0.711114,-0.711114,0.766294,-0.639018,0.796157,-0.603843,0.796157,-0.600000,0.800000,0.000000,0.800000,0.000000,0.796148,0.000000,0.796148,$1*%
G04 Aperture macros list end*
%ADD10RoundRect,0.250000X-0.650000X0.325000X-0.650000X-0.325000X0.650000X-0.325000X0.650000X0.325000X0*%
%ADD11R,1.600000X1.600000*%
%ADD12C,1.600000*%
%ADD13C,3.200000*%
%ADD14R,1.800000X2.500000*%
%ADD15O,1.800000X2.500000*%
%ADD16RoundRect,0.250001X-1.149999X1.149999X-1.149999X-1.149999X1.149999X-1.149999X1.149999X1.149999X0*%
%ADD17C,2.800000*%
%ADD18RoundRect,0.150000X-0.150000X0.587500X-0.150000X-0.587500X0.150000X-0.587500X0.150000X0.587500X0*%
%ADD19C,5.600000*%
%ADD20RoundRect,0.250000X-0.312500X-0.625000X0.312500X-0.625000X0.312500X0.625000X-0.312500X0.625000X0*%
%ADD21RoundRect,0.250000X-0.625000X0.312500X-0.625000X-0.312500X0.625000X-0.312500X0.625000X0.312500X0*%
%ADD22RoundRect,0.250000X-0.325000X-0.650000X0.325000X-0.650000X0.325000X0.650000X-0.325000X0.650000X0*%
%ADD23RoundRect,0.150000X-0.587500X-0.150000X0.587500X-0.150000X0.587500X0.150000X-0.587500X0.150000X0*%
%ADD24RoundRect,0.150000X0.587500X0.150000X-0.587500X0.150000X-0.587500X-0.150000X0.587500X-0.150000X0*%
%ADD25R,2.000000X2.000000*%
%ADD26C,2.000000*%
%ADD27R,3.200000X2.000000*%
%ADD28RoundRect,0.250000X0.625000X-0.312500X0.625000X0.312500X-0.625000X0.312500X-0.625000X-0.312500X0*%
%ADD29Outline5P,-1.270000X0.381000X-1.016000X0.635000X1.270000X0.635000X1.270000X-0.635000X-1.270000X-0.635000X90.000000*%
%ADD30R,1.270000X2.540000*%
%ADD31C,3.000000*%
%ADD32RoundRect,0.250000X0.312500X0.625000X-0.312500X0.625000X-0.312500X-0.625000X0.312500X-0.625000X0*%
%ADD33C,2.200000*%
%ADD34C,1.850000*%
%ADD35FreePoly0,0.000000*%
%ADD36RoundRect,0.200000X-0.600000X-0.600000X0.600000X-0.600000X0.600000X0.600000X-0.600000X0.600000X0*%
%ADD37RoundRect,0.800000X-0.800000X-0.000010X0.800000X-0.000010X0.800000X0.000010X-0.800000X0.000010X0*%
%ADD38FreePoly1,0.000000*%
%ADD39FreePoly2,0.000000*%
%ADD40FreePoly3,0.000000*%
%ADD41R,1.560000X1.560000*%
%ADD42C,1.560000*%
%ADD43RoundRect,0.375000X-0.625000X-0.375000X0.625000X-0.375000X0.625000X0.375000X-0.625000X0.375000X0*%
%ADD44RoundRect,0.500000X-0.500000X-1.400000X0.500000X-1.400000X0.500000X1.400000X-0.500000X1.400000X0*%
G04 APERTURE END LIST*
D10*
%TO.C,C2*%
X159350000Y-141475000D03*
X159350000Y-144425000D03*
%TD*%
D11*
%TO.C,C7*%
X207050000Y-131794888D03*
D12*
X207050000Y-133794888D03*
%TD*%
D13*
%TO.C,U1*%
X187574907Y-122980754D03*
X99674907Y-122880754D03*
X99674907Y-58080754D03*
X187574907Y-57980754D03*
D14*
X159434907Y-122980754D03*
D15*
X156894907Y-122980754D03*
X154354907Y-122980754D03*
X151814907Y-122980754D03*
X149274907Y-122980754D03*
X146734907Y-122980754D03*
X144194907Y-122980754D03*
X141654907Y-122980754D03*
X139114907Y-122980754D03*
X136574907Y-122980754D03*
X134034907Y-122980754D03*
X131494907Y-122980754D03*
X128954907Y-122980754D03*
X126414907Y-122980754D03*
X123874907Y-122980754D03*
X121334907Y-122980754D03*
X118794907Y-122980754D03*
X116254907Y-122980754D03*
X113714907Y-122980754D03*
X111174907Y-122980754D03*
%TD*%
D16*
%TO.C,J1*%
X86382500Y-136700000D03*
D17*
X86382500Y-141700000D03*
%TD*%
D18*
%TO.C,Q1*%
X117400000Y-131012500D03*
X115500000Y-131012500D03*
X116450000Y-132887500D03*
%TD*%
D19*
%TO.C,GND*%
X211050000Y-141250000D03*
%TD*%
D11*
%TO.C,C1*%
X176350000Y-132050000D03*
D12*
X178350000Y-132050000D03*
%TD*%
D20*
%TO.C,R7*%
X154275000Y-139200000D03*
X157200000Y-139200000D03*
%TD*%
D21*
%TO.C,R10*%
X183850000Y-138687500D03*
X183850000Y-141612500D03*
%TD*%
D20*
%TO.C,R13*%
X129187500Y-140250000D03*
X132112500Y-140250000D03*
%TD*%
%TO.C,R12*%
X187787500Y-131450000D03*
X190712500Y-131450000D03*
%TD*%
D21*
%TO.C,R8*%
X164250000Y-141487500D03*
X164250000Y-144412500D03*
%TD*%
D20*
%TO.C,R11*%
X129287500Y-135150000D03*
X132212500Y-135150000D03*
%TD*%
D22*
%TO.C,C4*%
X90000000Y-65750000D03*
X92950000Y-65750000D03*
%TD*%
D10*
%TO.C,C6*%
X201850000Y-135875000D03*
X201850000Y-138825000D03*
%TD*%
D23*
%TO.C,Q2*%
X170912500Y-138300000D03*
X170912500Y-140200000D03*
X172787500Y-139250000D03*
%TD*%
D13*
%TO.C,REF\u002A\u002A*%
X111050000Y-141250000D03*
%TD*%
D21*
%TO.C,R2*%
X90150000Y-82987500D03*
X90150000Y-85912500D03*
%TD*%
D20*
%TO.C,R6*%
X155487500Y-134750000D03*
X158412500Y-134750000D03*
%TD*%
D21*
%TO.C,R9*%
X178050000Y-138687500D03*
X178050000Y-141612500D03*
%TD*%
D13*
%TO.C,REF\u002A\u002A*%
X78550000Y-83750000D03*
%TD*%
D24*
%TO.C,Q3*%
X184625000Y-133300000D03*
X184625000Y-131400000D03*
X182750000Y-132350000D03*
%TD*%
D25*
%TO.C,SW1*%
X136200000Y-135250000D03*
D26*
X136200000Y-140250000D03*
X136200000Y-137750000D03*
D27*
X143700000Y-132150000D03*
X143700000Y-143350000D03*
D26*
X150700000Y-140250000D03*
X150700000Y-135250000D03*
%TD*%
D28*
%TO.C,R14*%
X95350000Y-140212500D03*
X95350000Y-137287500D03*
%TD*%
D29*
%TO.C,U2*%
X81000000Y-90050000D03*
D30*
X83540000Y-90050000D03*
X86080000Y-90050000D03*
X88620000Y-90050000D03*
D31*
X80500000Y-129550000D03*
X85750000Y-129550000D03*
X91000000Y-129550000D03*
%TD*%
D11*
%TO.C,C5*%
X89750000Y-74850000D03*
D12*
X92250000Y-74850000D03*
%TD*%
D32*
%TO.C,R5*%
X111012500Y-131050000D03*
X108087500Y-131050000D03*
%TD*%
D16*
%TO.C,J2*%
X82882500Y-59900000D03*
D17*
X82882500Y-64900000D03*
%TD*%
D28*
%TO.C,R1*%
X84650000Y-85850000D03*
X84650000Y-82925000D03*
%TD*%
D33*
%TO.C,A1*%
X202225000Y-61950000D03*
D34*
X202525000Y-64980000D03*
X207375000Y-64980000D03*
D33*
X207675000Y-61950000D03*
D35*
X195260000Y-61820000D03*
D36*
X196060000Y-61820000D03*
D37*
X195260000Y-64360000D03*
D12*
X196060000Y-64360000D03*
D38*
X195260000Y-66900000D03*
D39*
X196060000Y-66900000D03*
D37*
X195260000Y-69440000D03*
D12*
X196060000Y-69440000D03*
D37*
X195260000Y-71980000D03*
D12*
X196060000Y-71980000D03*
D37*
X195260000Y-74520000D03*
D12*
X196060000Y-74520000D03*
D37*
X195260000Y-77060000D03*
D12*
X196060000Y-77060000D03*
D38*
X195260000Y-79600000D03*
D39*
X196060000Y-79600000D03*
D37*
X195260000Y-82140000D03*
D12*
X196060000Y-82140000D03*
D37*
X195260000Y-84680000D03*
D12*
X196060000Y-84680000D03*
D37*
X195260000Y-87220000D03*
D12*
X196060000Y-87220000D03*
D37*
X195260000Y-89760000D03*
D12*
X196060000Y-89760000D03*
D38*
X195260000Y-92300000D03*
D39*
X196060000Y-92300000D03*
D37*
X195260000Y-94840000D03*
D12*
X196060000Y-94840000D03*
D37*
X195260000Y-97380000D03*
D12*
X196060000Y-97380000D03*
D37*
X195260000Y-99920000D03*
D12*
X196060000Y-99920000D03*
D37*
X195260000Y-102460000D03*
D12*
X196060000Y-102460000D03*
D38*
X195260000Y-105000000D03*
D39*
X196060000Y-105000000D03*
D37*
X195260000Y-107540000D03*
D12*
X196060000Y-107540000D03*
D37*
X195260000Y-110080000D03*
D12*
X196060000Y-110080000D03*
X213840000Y-110080000D03*
D37*
X214640000Y-110080000D03*
D12*
X213840000Y-107540000D03*
D37*
X214640000Y-107540000D03*
D40*
X213840000Y-105000000D03*
D35*
X214640000Y-105000000D03*
D12*
X213840000Y-102460000D03*
D37*
X214640000Y-102460000D03*
D12*
X213840000Y-99920000D03*
D37*
X214640000Y-99920000D03*
D12*
X213840000Y-97380000D03*
D37*
X214640000Y-97380000D03*
D12*
X213840000Y-94840000D03*
D37*
X214640000Y-94840000D03*
D40*
X213840000Y-92300000D03*
D35*
X214640000Y-92300000D03*
D12*
X213840000Y-89760000D03*
D37*
X214640000Y-89760000D03*
D12*
X213840000Y-87220000D03*
D37*
X214640000Y-87220000D03*
D12*
X213840000Y-84680000D03*
D37*
X214640000Y-84680000D03*
D12*
X213840000Y-82140000D03*
D37*
X214640000Y-82140000D03*
D40*
X213840000Y-79600000D03*
D35*
X214640000Y-79600000D03*
D12*
X213840000Y-77060000D03*
D37*
X214640000Y-77060000D03*
D12*
X213840000Y-74520000D03*
D37*
X214640000Y-74520000D03*
D12*
X213840000Y-71980000D03*
D37*
X214640000Y-71980000D03*
D12*
X213840000Y-69440000D03*
D37*
X214640000Y-69440000D03*
D40*
X213840000Y-66900000D03*
D35*
X214640000Y-66900000D03*
D12*
X213840000Y-64360000D03*
D37*
X214640000Y-64360000D03*
D12*
X213840000Y-61820000D03*
D37*
X214640000Y-61820000D03*
%TD*%
D21*
%TO.C,R3*%
X171650000Y-131987500D03*
X171650000Y-134912500D03*
%TD*%
D41*
%TO.C,RV1*%
X166750000Y-137090000D03*
D42*
X164250000Y-132090000D03*
X161750000Y-137090000D03*
%TD*%
D22*
%TO.C,C3*%
X90075000Y-59450000D03*
X93025000Y-59450000D03*
%TD*%
D43*
%TO.C,U3*%
X77500000Y-72250000D03*
X77500000Y-74550000D03*
D44*
X83800000Y-74550000D03*
D43*
X77500000Y-76850000D03*
%TD*%
M02*
