M48
; DRILL file {KiCad 9.0.1} date 2025-04-14T13:02:02+0200
; FORMAT={-:-/ absolute / metric / decimal}
; #@! TF.CreationDate,2025-04-14T13:02:02+02:00
; #@! TF.GenerationSoftware,Kicad,Pcbnew,9.0.1
; #@! TF.FileFunction,Plated,1,2,PTH
FMAT,2
METRIC
; #@! TA.AperFunction,Plated,PTH,ViaDrill
T1C0.300
; #@! TA.AperFunction,Plated,PTH,ViaDrill
T2C0.500
; #@! TA.AperFunction,Plated,PTH,ComponentDrill
T3C0.800
; #@! TA.AperFunction,Plated,PTH,ComponentDrill
T4C0.900
; #@! TA.AperFunction,Plated,PTH,ComponentDrill
T5C1.000
; #@! TA.AperFunction,Plated,PTH,ComponentDrill
T6C1.100
; #@! TA.AperFunction,Plated,PTH,ComponentDrill
T7C1.200
; #@! TA.AperFunction,Plated,PTH,ComponentDrill
T8C1.300
; #@! TA.AperFunction,Plated,PTH,ComponentDrill
T9C1.500
; #@! TA.AperFunction,Plated,PTH,ComponentDrill
T10C3.000
%
G90
G05
T1
X84.95Y-100.25
X84.95Y-122.05
X110.25Y-66.15
X131.05Y-82.95
X131.05Y-89.75
X138.55Y-136.95
X146.65Y-128.85
X150.15Y-127.55
X151.95Y-116.85
X152.35Y-66.25
X156.65Y-115.25
X157.25Y-143.35
X163.65Y-102.35
X163.65Y-123.85
X166.05Y-102.25
X166.05Y-123.95
X168.95Y-109.15
X168.95Y-123.65
X171.35Y-84.733
X184.65Y-66.25
X187.55Y-137.95
X190.85Y-107.55
X201.85Y-141.75
X211.05Y-135.25
T2
X156.895Y-125.85
X207.55Y-120.25
T3
X89.75Y-74.85
X92.25Y-74.85
X176.35Y-132.05
X178.35Y-132.05
X207.05Y-131.795
X207.05Y-133.795
T4
X81.0Y-90.05
X83.54Y-90.05
X86.08Y-90.05
X88.62Y-90.05
T5
X136.2Y-135.25
X136.2Y-137.75
X136.2Y-140.25
X150.7Y-135.25
X150.7Y-140.25
X161.75Y-137.09
X164.25Y-132.09
X166.75Y-137.09
X196.06Y-61.82
X196.06Y-64.36
X196.06Y-66.9
X196.06Y-69.44
X196.06Y-71.98
X196.06Y-74.52
X196.06Y-77.06
X196.06Y-79.6
X196.06Y-82.14
X196.06Y-84.68
X196.06Y-87.22
X196.06Y-89.76
X196.06Y-92.3
X196.06Y-94.84
X196.06Y-97.38
X196.06Y-99.92
X196.06Y-102.46
X196.06Y-105.0
X196.06Y-107.54
X196.06Y-110.08
X213.84Y-61.82
X213.84Y-64.36
X213.84Y-66.9
X213.84Y-69.44
X213.84Y-71.98
X213.84Y-74.52
X213.84Y-77.06
X213.84Y-79.6
X213.84Y-82.14
X213.84Y-84.68
X213.84Y-87.22
X213.84Y-89.76
X213.84Y-92.3
X213.84Y-94.84
X213.84Y-97.38
X213.84Y-99.92
X213.84Y-102.46
X213.84Y-105.0
X213.84Y-107.54
X213.84Y-110.08
T6
X80.5Y-129.55
X85.75Y-129.55
X91.0Y-129.55
T7
X111.175Y-122.981
X113.715Y-122.981
X116.255Y-122.981
X118.795Y-122.981
X121.335Y-122.981
X123.875Y-122.981
X126.415Y-122.981
X128.955Y-122.981
X131.495Y-122.981
X134.035Y-122.981
X136.575Y-122.981
X139.115Y-122.981
X141.655Y-122.981
X144.195Y-122.981
X146.735Y-122.981
X149.275Y-122.981
X151.815Y-122.981
X154.355Y-122.981
X156.895Y-122.981
X159.435Y-122.981
T8
X82.882Y-59.9
X82.882Y-64.9
X86.382Y-136.7
X86.382Y-141.7
T10
X99.675Y-58.081
X99.675Y-122.881
X187.575Y-57.981
X187.575Y-122.981
T9
G00X143.05Y-132.15
M15
G01X144.35Y-132.15
M16
G05
G00X143.05Y-143.35
M15
G01X144.35Y-143.35
M16
G05
M30
