%TF.GenerationSoftware,KiCad,Pcbnew,9.0.1*%
%TF.CreationDate,2025-04-15T15:16:39+02:00*%
%TF.ProjectId,lcd,6c63642e-6b69-4636-9164-5f7063625858,rev?*%
%TF.SameCoordinates,Original*%
%TF.FileFunction,Soldermask,Bot*%
%TF.FilePolarity,Negative*%
%FSLAX46Y46*%
G04 Gerber Fmt 4.6, Leading zero omitted, Abs format (unit mm)*
G04 Created by KiCad (PCBNEW 9.0.1) date 2025-04-15 15:16:39*
%MOMM*%
%LPD*%
G01*
G04 APERTURE LIST*
G04 Aperture macros list*
%AMRoundRect*
0 Rectangle with rounded corners*
0 $1 Rounding radius*
0 $2 $3 $4 $5 $6 $7 $8 $9 X,Y pos of 4 corners*
0 Add a 4 corners polygon primitive as box body*
4,1,4,$2,$3,$4,$5,$6,$7,$8,$9,$2,$3,0*
0 Add four circle primitives for the rounded corners*
1,1,$1+$1,$2,$3*
1,1,$1+$1,$4,$5*
1,1,$1+$1,$6,$7*
1,1,$1+$1,$8,$9*
0 Add four rect primitives between the rounded corners*
20,1,$1+$1,$2,$3,$4,$5,0*
20,1,$1+$1,$4,$5,$6,$7,0*
20,1,$1+$1,$6,$7,$8,$9,0*
20,1,$1+$1,$8,$9,$2,$3,0*%
%AMOutline5P*
0 Free polygon, 5 corners , with rotation*
0 The origin of the aperture is its center*
0 number of corners: always 5*
0 $1 to $10 corner X, Y*
0 $11 Rotation angle, in degrees counterclockwise*
0 create outline with 5 corners*
4,1,5,$1,$2,$3,$4,$5,$6,$7,$8,$9,$10,$1,$2,$11*%
%AMOutline6P*
0 Free polygon, 6 corners , with rotation*
0 The origin of the aperture is its center*
0 number of corners: always 6*
0 $1 to $12 corner X, Y*
0 $13 Rotation angle, in degrees counterclockwise*
0 create outline with 6 corners*
4,1,6,$1,$2,$3,$4,$5,$6,$7,$8,$9,$10,$11,$12,$1,$2,$13*%
%AMOutline7P*
0 Free polygon, 7 corners , with rotation*
0 The origin of the aperture is its center*
0 number of corners: always 7*
0 $1 to $14 corner X, Y*
0 $15 Rotation angle, in degrees counterclockwise*
0 create outline with 7 corners*
4,1,7,$1,$2,$3,$4,$5,$6,$7,$8,$9,$10,$11,$12,$13,$14,$1,$2,$15*%
%AMOutline8P*
0 Free polygon, 8 corners , with rotation*
0 The origin of the aperture is its center*
0 number of corners: always 8*
0 $1 to $16 corner X, Y*
0 $17 Rotation angle, in degrees counterclockwise*
0 create outline with 8 corners*
4,1,8,$1,$2,$3,$4,$5,$6,$7,$8,$9,$10,$11,$12,$13,$14,$15,$16,$1,$2,$17*%
%AMFreePoly0*
4,1,37,0.603843,0.796157,0.639018,0.796157,0.711114,0.766294,0.766294,0.711114,0.796157,0.639018,0.796157,0.603843,0.800000,0.600000,0.800000,-0.600000,0.796157,-0.603843,0.796157,-0.639018,0.766294,-0.711114,0.711114,-0.766294,0.639018,-0.796157,0.603843,-0.796157,0.600000,-0.800000,0.000000,-0.800000,0.000000,-0.796148,-0.078414,-0.796148,-0.232228,-0.765552,-0.377117,-0.705537,
-0.507515,-0.618408,-0.618408,-0.507515,-0.705537,-0.377117,-0.765552,-0.232228,-0.796148,-0.078414,-0.796148,0.078414,-0.765552,0.232228,-0.705537,0.377117,-0.618408,0.507515,-0.507515,0.618408,-0.377117,0.705537,-0.232228,0.765552,-0.078414,0.796148,0.000000,0.796148,0.000000,0.800000,0.600000,0.800000,0.603843,0.796157,0.603843,0.796157,$1*%
%AMFreePoly1*
4,1,37,0.000000,0.796148,0.078414,0.796148,0.232228,0.765552,0.377117,0.705537,0.507515,0.618408,0.618408,0.507515,0.705537,0.377117,0.765552,0.232228,0.796148,0.078414,0.796148,-0.078414,0.765552,-0.232228,0.705537,-0.377117,0.618408,-0.507515,0.507515,-0.618408,0.377117,-0.705537,0.232228,-0.765552,0.078414,-0.796148,0.000000,-0.796148,0.000000,-0.800000,-0.600000,-0.800000,
-0.603843,-0.796157,-0.639018,-0.796157,-0.711114,-0.766294,-0.766294,-0.711114,-0.796157,-0.639018,-0.796157,-0.603843,-0.800000,-0.600000,-0.800000,0.600000,-0.796157,0.603843,-0.796157,0.639018,-0.766294,0.711114,-0.711114,0.766294,-0.639018,0.796157,-0.603843,0.796157,-0.600000,0.800000,0.000000,0.800000,0.000000,0.796148,0.000000,0.796148,$1*%
G04 Aperture macros list end*
%ADD10R,1.600000X1.600000*%
%ADD11C,1.600000*%
%ADD12C,3.200000*%
%ADD13R,1.800000X2.500000*%
%ADD14O,1.800000X2.500000*%
%ADD15RoundRect,0.250001X-1.149999X1.149999X-1.149999X-1.149999X1.149999X-1.149999X1.149999X1.149999X0*%
%ADD16C,2.800000*%
%ADD17C,5.600000*%
%ADD18R,2.000000X2.000000*%
%ADD19C,2.000000*%
%ADD20R,3.200000X2.000000*%
%ADD21Outline5P,-1.270000X0.381000X-1.016000X0.635000X1.270000X0.635000X1.270000X-0.635000X-1.270000X-0.635000X90.000000*%
%ADD22R,1.270000X2.540000*%
%ADD23C,3.000000*%
%ADD24C,2.200000*%
%ADD25C,1.850000*%
%ADD26RoundRect,0.200000X-0.600000X-0.600000X0.600000X-0.600000X0.600000X0.600000X-0.600000X0.600000X0*%
%ADD27FreePoly0,0.000000*%
%ADD28FreePoly1,0.000000*%
%ADD29R,1.560000X1.560000*%
%ADD30C,1.560000*%
G04 APERTURE END LIST*
D10*
%TO.C,C7*%
X207050000Y-131794888D03*
D11*
X207050000Y-133794888D03*
%TD*%
D12*
%TO.C,U1*%
X187574907Y-122980754D03*
X99674907Y-122880754D03*
X99674907Y-58080754D03*
X187574907Y-57980754D03*
D13*
X159434907Y-122980754D03*
D14*
X156894907Y-122980754D03*
X154354907Y-122980754D03*
X151814907Y-122980754D03*
X149274907Y-122980754D03*
X146734907Y-122980754D03*
X144194907Y-122980754D03*
X141654907Y-122980754D03*
X139114907Y-122980754D03*
X136574907Y-122980754D03*
X134034907Y-122980754D03*
X131494907Y-122980754D03*
X128954907Y-122980754D03*
X126414907Y-122980754D03*
X123874907Y-122980754D03*
X121334907Y-122980754D03*
X118794907Y-122980754D03*
X116254907Y-122980754D03*
X113714907Y-122980754D03*
X111174907Y-122980754D03*
%TD*%
D15*
%TO.C,J1*%
X86382500Y-136700000D03*
D16*
X86382500Y-141700000D03*
%TD*%
D17*
%TO.C,GND*%
X211050000Y-141250000D03*
%TD*%
D10*
%TO.C,C1*%
X176350000Y-132050000D03*
D11*
X178350000Y-132050000D03*
%TD*%
D12*
%TO.C,REF\u002A\u002A*%
X111050000Y-141250000D03*
%TD*%
%TO.C,REF\u002A\u002A*%
X78550000Y-83750000D03*
%TD*%
D18*
%TO.C,SW1*%
X136200000Y-135250000D03*
D19*
X136200000Y-140250000D03*
X136200000Y-137750000D03*
D20*
X143700000Y-132150000D03*
X143700000Y-143350000D03*
D19*
X150700000Y-140250000D03*
X150700000Y-135250000D03*
%TD*%
D21*
%TO.C,U2*%
X81000000Y-90050000D03*
D22*
X83540000Y-90050000D03*
X86080000Y-90050000D03*
X88620000Y-90050000D03*
D23*
X80500000Y-129550000D03*
X85750000Y-129550000D03*
X91000000Y-129550000D03*
%TD*%
D10*
%TO.C,C5*%
X89750000Y-74850000D03*
D11*
X92250000Y-74850000D03*
%TD*%
D15*
%TO.C,J2*%
X82882500Y-59900000D03*
D16*
X82882500Y-64900000D03*
%TD*%
D24*
%TO.C,A1*%
X202225000Y-61950000D03*
D25*
X202525000Y-64980000D03*
X207375000Y-64980000D03*
D24*
X207675000Y-61950000D03*
D26*
X196060000Y-61820000D03*
D11*
X196060000Y-64360000D03*
D27*
X196060000Y-66900000D03*
D11*
X196060000Y-69440000D03*
X196060000Y-71980000D03*
X196060000Y-74520000D03*
X196060000Y-77060000D03*
D27*
X196060000Y-79600000D03*
D11*
X196060000Y-82140000D03*
X196060000Y-84680000D03*
X196060000Y-87220000D03*
X196060000Y-89760000D03*
D27*
X196060000Y-92300000D03*
D11*
X196060000Y-94840000D03*
X196060000Y-97380000D03*
X196060000Y-99920000D03*
X196060000Y-102460000D03*
D27*
X196060000Y-105000000D03*
D11*
X196060000Y-107540000D03*
X196060000Y-110080000D03*
X213840000Y-110080000D03*
X213840000Y-107540000D03*
D28*
X213840000Y-105000000D03*
D11*
X213840000Y-102460000D03*
X213840000Y-99920000D03*
X213840000Y-97380000D03*
X213840000Y-94840000D03*
D28*
X213840000Y-92300000D03*
D11*
X213840000Y-89760000D03*
X213840000Y-87220000D03*
X213840000Y-84680000D03*
X213840000Y-82140000D03*
D28*
X213840000Y-79600000D03*
D11*
X213840000Y-77060000D03*
X213840000Y-74520000D03*
X213840000Y-71980000D03*
X213840000Y-69440000D03*
D28*
X213840000Y-66900000D03*
D11*
X213840000Y-64360000D03*
X213840000Y-61820000D03*
%TD*%
D29*
%TO.C,RV1*%
X166750000Y-137090000D03*
D30*
X164250000Y-132090000D03*
X161750000Y-137090000D03*
%TD*%
M02*
